# xmcd
#
# Track frame offsets:
#	150
#	24794
#	52528
#
# Disc length: 1129 seconds
#
# Revision: 1
# Processed by: cddbd v1.5.1PL0 Copyright (c) Steve Scherf et al.
# Submitted via: CDex 1.50Beta5
#
DISCID=0f046703
DTITLE=NORIKO - LAMENTATION
DYEAR=1900
DGENRE=Pop
TTITLE0=LAMENTATION
TTITLE1=想いとどくまで
TTITLE2=あなたへの贈りもの
EXTD=
EXTT0=
EXTT1=
EXTT2=
PLAYORDER=
